<svg width="69" height="65" viewBox="0 0 69 65" fill="none" xmlns="http://www.w3.org/2000/svg">
<ellipse cx="34.5" cy="32.5" rx="34.5" ry="32.5" fill="#6E00FF"/>
<path d="M36.581 26.1H41.603C41.765 26.1 41.9 26.163 42.008 26.289C42.134 26.397 42.197 26.505 42.197 26.613C42.197 26.721 42.188 26.811 42.17 26.883L37.094 44.109C36.932 44.703 36.527 45 35.879 45H29.723C29.075 45 28.67 44.703 28.508 44.109L23.432 26.883C23.414 26.811 23.405 26.721 23.405 26.613C23.405 26.505 23.459 26.397 23.567 26.289C23.693 26.163 23.837 26.1 23.999 26.1H29.021C29.669 26.1 30.074 26.397 30.236 26.991L32.801 37.035L35.366 26.991C35.528 26.397 35.933 26.1 36.581 26.1ZM44.9398 38.844H49.6378C49.8358 38.844 50.0068 38.916 50.1508 39.06C50.2948 39.204 50.3668 39.375 50.3668 39.573V44.271C50.3668 44.469 50.2948 44.64 50.1508 44.784C50.0068 44.928 49.8358 45 49.6378 45H44.9398C44.7418 45 44.5708 44.928 44.4268 44.784C44.2828 44.64 44.2108 44.469 44.2108 44.271V39.573C44.2108 39.375 44.2828 39.204 44.4268 39.06C44.5708 38.916 44.7418 38.844 44.9398 38.844Z" fill="black"/>
</svg>
