<svg width="107" height="132" viewBox="0 0 107 132" fill="none" xmlns="http://www.w3.org/2000/svg">
<g clip-path="url(#clip0)">
<path d="M26.755 132C41.5181 132 53.4997 122.144 53.4997 110V88H26.755C11.992 88 0.010376 97.8561 0.010376 110C0.010376 122.144 11.992 132 26.755 132Z" fill="#0ACF83"/>
<path d="M0.010376 65.9998C0.010376 53.8558 11.992 43.9998 26.755 43.9998H53.4997V87.9998H26.755C11.992 87.9998 0.010376 78.1438 0.010376 65.9998Z" fill="#A259FF"/>
<path d="M0.0100098 22C0.0100098 9.856 11.9916 0 26.7547 0H53.4993V44H26.7547C11.9916 44 0.0100098 34.144 0.0100098 22Z" fill="#F24E1E"/>
<path d="M53.5 0H80.2447C95.0078 0 106.989 9.856 106.989 22C106.989 34.144 95.0078 44 80.2447 44H53.5V0Z" fill="#FF7262"/>
<path d="M106.989 65.9998C106.989 78.1438 95.0078 87.9998 80.2447 87.9998C65.4816 87.9998 53.5 78.1438 53.5 65.9998C53.5 53.8558 65.4816 43.9998 80.2447 43.9998C95.0078 43.9998 106.989 53.8558 106.989 65.9998Z" fill="#1ABCFE"/>
</g>
<defs>
<clipPath id="clip0">
<rect width="107" height="132" fill="white"/>
</clipPath>
</defs>
</svg>
