<svg width="165" height="136" viewBox="0 0 165 136" fill="none" xmlns="http://www.w3.org/2000/svg">
<path d="M161.24 61.905L89.4884 2.56383C85.357 -0.854609 78.6556 -0.854609 74.5207 2.56383L59.6227 14.8885L78.5215 30.5193C82.914 29.2915 87.9503 30.1154 91.4503 33.0117C94.9718 35.9257 95.9591 40.1267 94.4371 43.7729L112.654 58.8386C117.063 57.5812 122.146 58.3948 125.666 61.3103C130.584 65.3781 130.584 71.9694 125.666 76.0402C120.744 80.1095 112.774 80.1095 107.851 76.0402C104.152 72.9783 103.236 68.4815 105.112 64.7125L88.122 50.6615V87.6371C89.3203 88.1282 90.4524 88.7821 91.4503 89.6074C96.3686 93.6752 96.3686 100.267 91.4503 104.339C86.532 108.405 78.5573 108.405 73.6425 104.339C68.7242 100.265 68.7242 93.6738 73.6425 89.6074C74.8587 88.6031 76.2662 87.8428 77.7685 87.3339V50.0137C76.2662 49.5048 74.8623 48.7519 73.6425 47.7401C69.9171 44.6604 69.0211 40.137 70.9312 36.3532L52.3007 20.9414L3.09987 61.6298C-1.03329 65.0512 -1.03329 70.5938 3.09987 74.0122L74.8551 133.355C78.9865 136.773 85.6861 136.773 89.8228 133.355L161.24 74.2873C165.373 70.8689 165.373 65.3234 161.24 61.905Z" fill="#F05133"/>
</svg>
