<svg width="127" height="125" viewBox="0 0 127 125" fill="none" xmlns="http://www.w3.org/2000/svg">
<g clip-path="url(#clip0)">
<path fill-rule="evenodd" clip-rule="evenodd" d="M63.5 0C28.4163 0 0 27.9687 0 62.5C0 90.1562 18.1769 113.516 43.4181 121.797C46.5931 122.344 47.7837 120.469 47.7837 118.828C47.7837 117.344 47.7044 112.422 47.7044 107.187C31.75 110.078 27.6225 103.359 26.3525 99.8437C25.6381 98.0469 22.5425 92.5 19.8438 91.0156C17.6213 89.8437 14.4462 86.9531 19.7644 86.875C24.765 86.7969 28.3369 91.4062 29.5275 93.2812C35.2425 102.734 44.3706 100.078 48.0219 98.4375C48.5775 94.375 50.2444 91.6406 52.07 90.0781C37.9412 88.5156 23.1775 83.125 23.1775 59.2187C23.1775 52.4219 25.6381 46.7969 29.6863 42.4219C29.0513 40.8594 26.8287 34.4531 30.3212 25.8594C30.3212 25.8594 35.6394 24.2187 47.7837 32.2656C52.8638 30.8594 58.2613 30.1562 63.6588 30.1562C69.0563 30.1562 74.4538 30.8594 79.5338 32.2656C91.6781 24.1406 96.9963 25.8594 96.9963 25.8594C100.489 34.4531 98.2663 40.8594 97.6312 42.4219C101.679 46.7969 104.14 52.3437 104.14 59.2187C104.14 83.2031 89.2969 88.5156 75.1681 90.0781C77.47 92.0312 79.4544 95.7812 79.4544 101.641C79.4544 110 79.375 116.719 79.375 118.828C79.375 120.469 80.5656 122.422 83.7406 121.797C108.823 113.516 127 90.0781 127 62.5C127 27.9687 98.5837 0 63.5 0Z" fill="#1B1F23"/>
</g>
<defs>
<clipPath id="clip0">
<rect width="127" height="125" fill="white"/>
</clipPath>
</defs>
</svg>
