<svg width="100" height="23" viewBox="0 0 100 23" fill="none" xmlns="http://www.w3.org/2000/svg">
<path d="M29.2443 22.875H1.95788C0.892057 22.875 0 22.0344 0 20.9414V2.0636C0 0.998053 0.867435 0.105713 1.95788 0.105713H29.2443C30.3101 0.105713 31.2022 0.973148 31.2022 2.0636V20.9165C31.1773 22.0316 30.3098 22.8744 29.2443 22.8744V22.875Z" fill="white"/>
<path opacity="0.1" d="M3.89091 22.8748L15.5638 14.3315L15.6382 13.8362L3.61866 5.18677L3.59375 22.4506L3.89091 22.8748Z" fill="#221F1F"/>
<path d="M1.95788 22.875C0.867435 22.875 0 22.0344 0 20.9414V2.03616C0 0.945707 0.867435 0.747314 1.95788 0.747314C3.04833 0.747314 3.91577 0.970329 3.91577 2.03616V22.8716L1.95788 22.875Z" fill="#D44C3D"/>
<path d="M1.95788 1.04769C3.34578 1.04769 3.61832 1.47221 3.61832 2.03908V22.6022H1.95788C1.51758 22.602 1.09537 22.427 0.784026 22.1157C0.472682 21.8043 0.297672 21.3821 0.297447 20.9418V2.03908C0.272542 1.44419 0.569988 1.04769 1.95788 1.04769ZM1.95788 0.775146C0.867435 0.775146 0 0.998161 0 2.03908V20.9166C0 22.0317 0.867435 22.8745 1.95788 22.8745H3.91577V2.03908C3.89086 0.973539 3.04833 0.775146 1.95788 0.775146ZM29.2443 1.04769C30.5082 1.04769 30.9047 1.29561 30.9047 1.98956V20.9664C30.9045 21.4067 30.7295 21.8289 30.4182 22.1403C30.1068 22.4516 29.6846 22.6266 29.2443 22.6269H27.5839V1.98956C27.559 1.2707 27.9801 1.04769 29.2443 1.04769ZM29.2443 0.775146C28.1538 0.775146 27.2864 0.923728 27.2864 1.9921V22.9022H29.2443C30.3347 22.9022 31.2022 22.0348 31.2022 20.9444V1.96465C31.1773 0.898823 30.3098 0.775146 29.2443 0.775146Z" fill="#D44C3D"/>
<path d="M29.2443 22.8749H27.2864V1.98942C27.2864 0.898968 28.1538 0.772461 29.2443 0.772461C30.3347 0.772461 31.2021 0.921043 31.2021 1.98942V20.9663C31.1772 22.0321 30.3098 22.8746 29.2443 22.8746V22.8749Z" fill="#D44C3D"/>
<path opacity="0.08" d="M20.892 22.8749L0.173462 2.85655L1.26391 3.30257L15.6874 13.6869L31.2022 2.30835V20.9632C31.2022 22.029 30.3347 22.8961 29.2443 22.8961L20.892 22.8749Z" fill="#221F1F"/>
<path d="M15.5638 14.3562L0.842557 3.67445C-0.0248778 3.03003 -0.272797 1.79099 0.371623 0.92356C1.01604 0.0561251 2.25507 -0.141984 3.14713 0.502154L15.5856 9.54782L28.1012 0.378194C28.9721 -0.265944 30.189 -0.0678346 30.8303 0.824505C31.4747 1.69194 31.2764 2.90635 30.3843 3.55077L15.5638 14.3562Z" fill="#D44C3D"/>
<path d="M29.2444 0.304039C29.7651 0.304039 30.2853 0.551958 30.6073 0.997986C31.1281 1.74146 30.9792 2.78238 30.2355 3.32775L15.5641 14.0095L1.01607 3.45171C0.272598 2.90634 0.074206 1.8408 0.591554 1.12195C0.888717 0.675918 1.41229 0.403093 1.97945 0.403093C2.35133 0.403093 2.6983 0.502148 2.97084 0.725162L15.3875 9.74648L15.561 9.84554L15.7344 9.74648L28.2252 0.576863C28.5473 0.403376 28.8696 0.304321 29.2441 0.304321L29.2444 0.304039ZM29.2444 0.00687482C28.8481 0.00687482 28.4236 0.105929 28.1044 0.378754L15.5856 9.54781L3.12254 0.477242C2.80047 0.229606 2.37906 0.105646 1.95794 0.105646C1.33531 0.130552 0.71891 0.40281 0.347031 0.926384C-0.275598 1.79382 -0.0248485 3.00823 0.842303 3.65265L15.5635 14.359L30.3872 3.55359C30.8043 3.24851 31.0848 2.79174 31.1682 2.28176C31.2516 1.77177 31.1313 1.24942 30.8332 0.82733C30.437 0.306586 29.8418 0.0065918 29.2472 0.0065918L29.2444 0.00687482Z" fill="#D44C3D"/>
<path d="M58.6884 12.1284C58.6884 14.4689 57.9939 16.334 56.6055 17.723C55.0446 19.3775 52.9925 20.2044 50.4491 20.2044C48.0146 20.2044 45.9548 19.3616 44.2695 17.6763C42.5841 15.9909 41.7413 13.9156 41.7413 11.45C41.7413 8.98439 42.5841 6.90905 44.2695 5.22371C45.9548 3.53837 48.0146 2.69556 50.4491 2.69556C51.6816 2.69556 52.8445 2.91404 53.9369 3.35073C55.0294 3.78742 55.9265 4.40411 56.6256 5.19994L55.0809 6.74519C54.5658 6.12115 53.8987 5.63295 53.0794 5.28201C52.2601 4.93108 51.3825 4.75561 50.446 4.75561C48.6205 4.75561 47.0781 5.38729 45.8113 6.6518C44.5627 7.93101 43.9386 9.53089 43.9386 11.4503C43.9386 13.3697 44.5627 14.9698 45.8113 16.249C47.0753 17.513 48.6202 18.1452 50.446 18.1452C52.1157 18.1452 53.5045 17.6771 54.6128 16.7406C55.721 15.8042 56.3604 14.517 56.5322 12.8786H50.446V10.8656H58.5684C58.6446 11.2826 58.6838 11.7056 58.6856 12.1295L58.6884 12.1284ZM63.0865 19.8269H60.9356V8.36006H62.9953V9.95173H63.0887C63.4165 9.38995 63.9196 8.92156 64.5986 8.54713C65.2775 8.17271 65.952 7.98564 66.6233 7.98564C67.4661 7.98564 68.207 8.18374 68.8469 8.57062C69.4743 8.94667 69.966 9.51224 70.2512 10.1858C71.203 8.71892 72.5218 7.98564 74.2077 7.98564C75.5339 7.98564 76.5562 8.39148 77.2742 9.20259C77.9922 10.0137 78.351 11.1687 78.351 12.6667V19.8269H76.2001V12.995C76.2001 11.9181 76.002 11.1421 75.6149 10.6658C75.2277 10.1895 74.5694 9.95201 73.6488 9.95201C72.8215 9.95201 72.1273 10.3029 71.5658 11.0054C71.0043 11.7078 70.723 12.5348 70.723 13.4868V19.8269H68.5721V12.995C68.5721 11.9181 68.374 11.1421 67.9871 10.6658C67.6002 10.1895 66.9417 9.95201 66.021 9.95201C65.1935 9.95201 64.4993 10.3029 63.938 11.0054C63.3768 11.7078 63.0952 12.5348 63.0952 13.4868V19.8269H63.0865ZM85.1128 7.98564C86.7045 7.98564 87.9608 8.411 88.8814 9.26117C89.802 10.1113 90.2625 11.2785 90.2625 12.7606V19.8269H88.2027V18.2352H88.1093C87.2198 19.5461 86.0337 20.2013 84.5513 20.2013C83.2874 20.2013 82.23 19.8269 81.3796 19.0778C80.5291 18.3286 80.1037 17.3924 80.1037 16.2686C80.1037 15.0799 80.5523 14.1386 81.4498 13.4362C82.3472 12.7337 83.5449 12.3828 85.0429 12.3828C86.3221 12.3828 87.3755 12.6169 88.203 13.0847V12.5931C88.203 11.8442 87.9064 11.2083 87.3132 10.6856C86.72 10.1629 86.0255 9.90163 85.2302 9.90163C84.0283 9.90163 83.0793 10.4091 82.3718 11.4234L80.4756 10.2291C81.5208 8.73109 83.0658 7.98196 85.1102 7.98196L85.1128 7.98564ZM82.3271 16.3187C82.3271 16.8802 82.5648 17.3488 83.0411 17.723C83.5174 18.0971 84.0741 18.2848 84.7146 18.2848C85.6194 18.2848 86.4268 17.9494 87.1372 17.2781C87.8476 16.6068 88.2024 15.8192 88.2024 14.9138C87.5311 14.3834 86.5949 14.118 85.3933 14.118C84.5193 14.118 83.79 14.3285 83.2047 14.7496C82.6194 15.1708 82.3268 15.6941 82.3268 16.3181L82.3271 16.3187ZM95.483 4.40382C95.4863 4.6042 95.4486 4.80314 95.3721 4.98835C95.2956 5.17357 95.1819 5.34113 95.0381 5.48069C94.7415 5.77729 94.3829 5.92502 93.9612 5.92502C93.5395 5.92502 93.1807 5.777 92.8843 5.48069C92.588 5.18437 92.44 4.82551 92.44 4.40382C92.4366 4.20347 92.4743 4.00454 92.5507 3.81933C92.6272 3.63411 92.7408 3.46654 92.8846 3.32696C93.0242 3.18319 93.1918 3.06956 93.377 2.99309C93.5622 2.91661 93.7611 2.87892 93.9615 2.88235C94.1618 2.87892 94.3608 2.91661 94.546 2.99309C94.7312 3.06956 94.8988 3.18319 95.0383 3.32696C95.3347 3.62412 95.4832 3.98242 95.4832 4.40382H95.483ZM95.0381 8.36034V19.8269H92.8872V8.36006L95.0381 8.36034ZM99.9998 3.07253V19.8269H97.8489V3.07253H99.9998Z" fill="white"/>
</svg>
