<svg width="125" height="111" viewBox="0 0 125 111" fill="none" xmlns="http://www.w3.org/2000/svg">
<path d="M125 0H0V111H125V0Z" fill="#F7DF1E"/>
<path d="M83.9683 86.7189C86.4861 90.3696 89.7619 93.053 95.5556 93.053C100.423 93.053 103.532 90.8929 103.532 87.9082C103.532 84.3316 100.337 83.0648 94.9802 80.9839L92.0437 79.8651C83.5675 76.6585 77.9365 72.6413 77.9365 64.1489C77.9365 56.3261 84.6488 50.3708 95.1389 50.3708C102.607 50.3708 107.976 52.6789 111.845 58.7223L102.698 63.9375C100.685 60.7309 98.5119 59.4676 95.1389 59.4676C91.6984 59.4676 89.5179 61.4057 89.5179 63.9375C89.5179 67.0667 91.7004 68.3335 96.7401 70.2716L99.6766 71.3886C109.657 75.189 115.292 79.0635 115.292 87.7743C115.292 97.1653 106.984 102.31 95.8274 102.31C84.9187 102.31 77.8711 97.6939 74.4226 91.6435L83.9683 86.7189ZM42.4742 87.6228C44.3195 90.5299 45.998 92.9878 50.0338 92.9878C53.8929 92.9878 56.3274 91.647 56.3274 86.4335V50.9664H68.0734V86.5745C68.0734 97.3749 60.9425 102.291 50.5338 102.291C41.129 102.291 35.6826 97.9687 32.9127 92.7632L42.4742 87.6228Z" fill="black"/>
</svg>
