<svg width="193" height="120" viewBox="0 0 193 120" fill="none" xmlns="http://www.w3.org/2000/svg">
<path d="M166.188 68.9833C159.455 69.0125 153.603 70.357 148.703 72.3444C146.905 69.3925 145.107 66.7621 144.79 64.8331C144.438 62.5826 144.014 61.2089 144.438 58.5201C144.861 55.8312 146.764 52.0025 146.729 51.7102C146.694 51.4179 146.306 50.0443 142.428 50.015C138.55 49.9858 135.201 50.6288 134.814 51.4764C134.426 52.324 133.686 54.2529 133.192 56.2404C132.522 59.1631 125.437 69.5971 121.383 75.0625C120.078 72.9289 118.95 71.0584 118.703 69.5678C118.351 67.3174 117.928 65.9437 118.351 63.2548C118.774 60.5659 120.678 56.7372 120.642 56.445C120.607 56.1527 120.219 54.779 116.341 54.7498C112.464 54.7206 109.115 55.3636 108.727 56.2111C108.339 57.0587 107.916 59.0462 107.105 60.9751C106.295 62.9041 96.8823 80.3234 94.4146 84.8243C93.1455 87.1332 92.0527 88.9745 91.2772 90.2313C91.2772 90.2313 91.2419 90.319 91.1362 90.4651C90.4664 91.5465 90.0786 92.1311 90.0786 92.1311C90.0786 92.1311 90.0786 92.1311 90.0786 92.1603C89.5498 92.9494 88.9858 93.6801 88.7038 93.6801C88.4923 93.6801 88.1045 91.5757 88.7743 88.7115C90.1844 82.6615 93.5333 73.2505 93.4981 72.9289C93.4981 72.7536 94.1326 71.1169 91.3124 70.2693C88.5628 69.4217 87.5757 70.8246 87.3289 70.8246C87.0822 70.8246 86.9059 71.3215 86.9059 71.3215C86.9059 71.3215 89.9728 60.7413 81.054 60.7413C75.4842 60.7413 67.7992 65.7976 63.992 70.357C61.5948 71.4384 56.4833 73.7473 51.0192 76.2316C48.9393 77.1961 46.7889 78.1606 44.7795 79.0666C44.6385 78.9497 44.4975 78.8036 44.3565 78.6867C33.5693 69.1294 13.6166 62.378 14.4626 49.5474C14.7799 44.8711 16.7188 32.5958 52.7818 17.69C82.4641 5.56083 106.083 8.92193 110.172 16.3748C116.024 27.0134 97.5168 46.7708 66.8474 49.6351C55.1437 50.7165 49.0098 46.9754 47.4587 45.5725C45.8371 44.1112 45.5903 44.0235 44.991 44.3158C44.004 44.7542 44.6385 46.0694 44.991 46.8293C45.9076 48.8167 49.6796 52.3239 56.0602 54.0483C61.7006 55.5681 75.4137 56.4157 92.0175 51.0964C110.595 45.1341 125.119 28.5624 120.854 14.6796C116.588 0.592248 88.3865 -4.05484 61.7006 3.80721C45.8371 8.48352 28.634 15.8487 16.2605 25.4352C1.56034 36.8337 -0.766306 46.7416 0.185504 50.8918C3.60497 65.6222 28.1052 75.2086 37.9054 82.3108C37.4118 82.5446 36.9535 82.7492 36.5658 82.9246C31.6657 84.9412 12.9821 93.0371 8.32876 101.601C3.04093 111.304 9.17481 118.26 13.2288 119.195C25.8139 122.089 38.7514 116.886 45.6961 108.294C52.6408 99.7008 51.7947 88.5361 48.5868 83.4214C48.5515 83.363 48.5163 83.3045 48.4458 83.2461C49.7148 82.6323 51.0192 81.9893 52.2883 81.3755C54.7912 80.148 57.2588 79.0082 59.3739 78.0729C58.1754 80.791 57.2941 84.0352 56.871 88.7115C56.3423 94.2062 59.0567 101.338 62.6171 104.143C64.2035 105.371 66.0719 105.4 67.2704 105.4C71.4302 105.4 73.2986 102.536 75.3784 99.1455C77.9166 94.9953 80.208 90.1728 80.208 90.1728C80.208 90.1728 77.3526 103.208 85.108 103.208C87.9282 103.208 90.7837 100.168 92.0527 98.6194C92.0527 98.6487 92.0527 98.6487 92.0527 98.6487C92.0527 98.6487 92.1232 98.561 92.2643 98.3564C92.5463 97.9764 92.7225 97.7426 92.7225 97.7426C92.7225 97.7426 92.7225 97.7134 92.7225 97.6842C93.8506 96.0475 96.3888 92.3356 100.161 86.1688C105.026 78.219 109.714 68.2819 109.714 68.2819C109.714 68.2819 110.137 70.7077 111.582 74.741C112.429 77.1084 114.191 79.7096 115.601 82.2231C114.473 83.5383 113.768 84.269 113.768 84.269C113.768 84.269 113.768 84.269 113.803 84.2982C112.887 85.2919 111.9 86.3733 110.807 87.4255C106.964 91.225 102.382 95.5798 101.747 96.8366C101.007 98.3272 101.183 99.4086 102.593 100.285C103.615 100.928 105.449 101.016 107.317 100.928C110.772 100.724 113.204 100.022 114.403 99.5839C116.271 99.0286 118.457 98.181 120.501 96.9243C124.273 94.6153 126.565 91.3127 126.353 86.9579C126.247 84.5613 125.296 82.1647 124.132 79.9142C124.485 79.505 124.802 79.0958 125.155 78.6867C131.112 71.4676 135.73 63.5471 135.73 63.5471C135.73 63.5471 136.153 65.9729 137.599 70.0063C138.304 72.0521 139.749 74.2734 141.018 76.4362C135.413 80.2065 131.958 84.5905 130.724 87.4547C128.503 92.774 130.231 95.1707 133.509 95.726C134.99 95.989 137.105 95.4045 138.656 94.8492C140.63 94.3231 142.957 93.417 145.178 92.0726C148.95 89.7637 152.581 86.5487 152.369 82.1939C152.263 80.2065 151.629 78.2483 150.748 76.3485C155.507 74.7118 161.641 73.8058 169.467 74.5657C186.247 76.2024 189.56 84.8828 188.926 88.5361C188.291 92.1895 184.766 94.1769 183.603 94.7907C182.439 95.4045 182.052 95.6091 182.157 96.0475C182.298 96.6905 182.862 96.6612 183.849 96.5443C185.224 96.3397 192.663 93.5924 192.98 86.8702C193.509 78.2775 183.638 68.8956 166.188 68.9833ZM36.742 105.166C31.1722 110.193 23.4167 112.093 20.0677 110.486C16.472 108.761 17.8821 101.338 24.721 96.0182C28.8808 92.774 34.2391 89.7637 37.7996 87.9224C38.6104 87.5132 39.809 86.9286 41.2543 86.198C41.5011 86.0811 41.6421 86.0226 41.6421 86.0226C41.9241 85.8765 42.2061 85.7303 42.4881 85.5842C44.9911 93.1832 42.5939 99.8762 36.742 105.166ZM77.2821 82.3108C75.3432 86.2272 71.2892 96.2521 68.8215 95.6967C66.7064 95.2291 65.4021 87.6301 68.3985 80.1188C69.9144 76.3485 73.1223 71.8476 74.9907 70.0939C78.0224 67.2881 81.3713 66.3529 82.1821 67.4927C83.2044 68.9833 78.4806 79.8557 77.2821 82.3108ZM110.736 95.5798C109.926 95.9306 109.15 96.1644 108.798 95.989C108.551 95.8721 109.15 95.4045 109.15 95.4045C109.15 95.4045 113.345 91.6634 115.002 89.9683C115.954 88.9745 117.082 87.8055 118.28 86.4902C118.28 86.6072 118.28 86.7533 118.28 86.8702C118.28 91.3419 113.063 94.3523 110.736 95.5798ZM136.541 90.6989C135.942 90.3482 136.047 89.1791 138.057 85.5258C138.832 84.0936 140.666 81.697 143.803 79.3881C144.155 80.3234 144.402 81.2294 144.367 82.077C144.332 87.7178 139.467 89.8221 136.541 90.6989Z" fill="#CD6799"/>
</svg>
