<svg width="65" height="65" viewBox="0 0 65 65" fill="none" xmlns="http://www.w3.org/2000/svg">
<g clip-path="url(#clip0)">
<path d="M32.5 65.0813C50.4044 65.0813 64.9187 50.5306 64.9187 32.5813C64.9187 14.632 50.4044 0.0812988 32.5 0.0812988C14.5956 0.0812988 0.0812378 14.632 0.0812378 32.5813C0.0812378 50.5306 14.5956 65.0813 32.5 65.0813Z" fill="#50B1DF"/>
<path d="M12.0088 30.8262L47.19 17.0462C47.905 16.7699 48.6363 17.3874 48.4738 18.1349L42.25 48.1487C42.0875 48.9612 41.1288 49.3187 40.4625 48.8312L26.4875 38.3662C26.455 38.3337 26.4388 38.2849 26.4713 38.2524L40.3325 23.8874C40.3975 23.8224 40.3163 23.7087 40.235 23.7574L22.0025 35.7987C21.9863 35.8149 21.9538 35.8149 21.9375 35.8149L12.025 32.2074C11.3913 31.9637 11.375 31.0699 12.0088 30.8262Z" fill="white"/>
<path d="M21.9537 35.8151L25.5125 47.9213L26.4062 38.3013L40.8362 23.3513L21.9537 35.8151Z" fill="#D1E3EF"/>
<path d="M25.5125 47.9213L31.3949 42.0225L26.4062 38.3013L25.5125 47.9213Z" fill="#B6CCDD"/>
</g>
<defs>
<clipPath id="clip0">
<rect width="65" height="65" fill="white"/>
</clipPath>
</defs>
</svg>
