<svg width="128" height="114" viewBox="0 0 128 114" fill="none" xmlns="http://www.w3.org/2000/svg">
<path d="M115.5 0H12.5C5.59644 0 0 4.98433 0 11.1328V102.867C0 109.016 5.59644 114 12.5 114H115.5C122.404 114 128 109.016 128 102.867V11.1328C128 4.98433 122.404 0 115.5 0Z" fill="#3178C6"/>
<path fill-rule="evenodd" clip-rule="evenodd" d="M79.25 90.6213V101.754C81.275 102.689 83.75 103.379 86.5 103.847C89.25 104.315 92.25 104.537 95.25 104.537C98.25 104.537 101 104.292 103.75 103.78C106.5 103.268 108.75 102.422 110.75 101.331C112.775 100.151 114.5 98.6592 115.5 96.6553C116.5 94.6513 117.275 92.4248 117.275 89.5303C117.275 87.5041 116.925 85.7451 116.25 84.1865C115.575 82.6279 114.6 81.292 113.25 80.1787C111.975 78.9986 110.5 77.9521 108.75 77.0615C107 76.1709 105 75.2357 102.75 74.3896C101.1 73.7885 99.75 73.2096 98.25 72.6306C96.95 72.0517 95.825 71.4728 95 70.8939C94.075 70.2928 93.375 69.6693 92.875 69.0236C92.375 68.3556 92.125 67.6209 92.125 66.7971C92.125 66.04 92.3475 65.3498 92.8 64.7263C93.2525 64.1029 93.875 63.5908 94.675 63.1455C95.475 62.7002 96.475 62.3662 97.675 62.1213C98.85 61.8763 100.15 61.765 101.675 61.765C102.725 61.765 103.825 61.834 104.925 61.9743C106.075 62.1146 107.25 62.3306 108.425 62.62C109.6 62.9095 110.75 63.2657 111.925 63.711C113.025 64.1564 114.05 64.6685 114.925 65.2474V54.7825C113.025 54.1368 110.925 53.647 108.675 53.3353C106.425 53.0235 103.925 52.8677 100.925 52.8677C97.925 52.8677 95.175 53.1571 92.425 53.7138C89.675 54.2704 87.425 55.161 85.425 56.3856C83.4 57.588 81.925 59.0575 80.675 61.0614C79.5 62.9317 78.925 65.0692 78.925 67.7411C78.925 71.081 80 73.9755 82.175 76.202C84.325 78.6513 87.675 80.4325 91.925 82.2138C93.65 82.8372 95.175 83.4606 96.675 84.0618C98.175 84.663 99.425 85.2864 100.425 85.9321C101.5 86.5778 102.35 87.2903 102.925 88.0474C103.55 88.8044 103.875 89.695 103.875 90.7192C103.875 91.4317 103.68 92.0997 103.3 92.7231C102.92 93.3466 102.325 93.881 101.525 94.3263C100.725 94.7716 99.75 95.1278 98.525 95.395C97.35 95.6399 96.025 95.7735 94.275 95.7735C91.525 95.7735 88.775 95.3505 86.275 94.5044C83.525 93.6583 81.025 92.3892 78.775 90.7192L79.25 90.6213ZM58.25 63.2346H74.25V54.1056H29.5V63.2346H45.5V103.981H58.25V63.2346Z" fill="white"/>
</svg>
